<svg xmlns="http://www.w3.org/2000/svg" version="1.0" width="512.000000pt" height="512.000000pt" viewBox="0 0 512.000000 512.000000" preserveAspectRatio="xMidYMid meet">

<g transform="translate(0.000000,512.000000) scale(0.100000,-0.100000)" fill="#000000" stroke="none">
<path d="M0 4725 l0 -395 388 2 387 3 3 393 2 392 -390 0 -390 0 0 -395z"/>
<path d="M1070 4725 l0 -395 385 0 385 0 0 395 0 395 -385 0 -385 0 0 -395z"/>
<path d="M2130 4725 l0 -395 390 0 390 0 0 395 0 395 -390 0 -390 0 0 -395z"/>
<path d="M3200 4725 l0 -395 385 0 385 0 0 395 0 395 -385 0 -385 0 0 -395z"/>
<path d="M4342 4728 l3 -393 388 -3 387 -2 0 395 0 395 -390 0 -390 0 2 -392z"/>
<path d="M0 3645 l0 -395 390 0 390 0 -2 393 -3 392 -387 3 -388 2 0 -395z"/>
<path d="M1070 3645 l0 -395 385 0 385 0 0 395 0 395 -385 0 -385 0 0 -395z"/>
<path d="M2130 3645 l0 -395 390 0 390 0 0 395 0 395 -390 0 -390 0 0 -395z"/>
<path d="M3200 3645 l0 -395 385 0 385 0 0 395 0 395 -385 0 -385 0 0 -395z"/>
<path d="M4347 4033 c-4 -3 -7 -181 -7 -395 l0 -388 390 0 390 0 0 395 0 395 -383 0 c-211 0 -387 -3 -390 -7z"/>
<path d="M0 2560 l0 -390 390 0 390 0 0 390 0 390 -390 0 -390 0 0 -390z"/>
<path d="M1070 2560 l0 -390 385 0 385 0 0 390 0 390 -385 0 -385 0 0 -390z"/>
<path d="M2130 2560 l0 -390 390 0 390 0 0 390 0 390 -390 0 -390 0 0 -390z"/>
<path d="M3200 2560 l0 -390 385 0 385 0 0 390 0 390 -385 0 -385 0 0 -390z"/>
<path d="M4340 2560 l0 -390 390 0 390 0 0 390 0 390 -390 0 -390 0 0 -390z"/>
<path d="M0 1475 l0 -395 388 2 387 3 3 393 2 392 -390 0 -390 0 0 -395z"/>
<path d="M1070 1475 l0 -395 385 0 385 0 0 395 0 395 -385 0 -385 0 0 -395z"/>
<path d="M2130 1475 l0 -395 390 0 390 0 0 395 0 395 -390 0 -390 0 0 -395z"/>
<path d="M3200 1475 l0 -395 385 0 385 0 0 395 0 395 -385 0 -385 0 0 -395z"/>
<path d="M4342 1478 l3 -393 388 -3 387 -2 0 395 0 395 -390 0 -390 0 2 -392z"/>
<path d="M0 395 l0 -395 390 0 390 0 -2 393 -3 392 -387 3 -388 2 0 -395z"/>
<path d="M1070 395 l0 -395 385 0 385 0 0 395 0 395 -385 0 -385 0 0 -395z"/>
<path d="M2130 395 l0 -395 390 0 390 0 0 395 0 395 -390 0 -390 0 0 -395z"/>
<path d="M3200 395 l0 -395 385 0 385 0 0 395 0 395 -385 0 -385 0 0 -395z"/>
<path d="M4347 783 c-4 -3 -7 -181 -7 -395 l0 -388 390 0 390 0 0 395 0 395 -383 0 c-211 0 -387 -3 -390 -7z"/>
</g>
</svg>